<?xml version="1.0" standalone="no"?>
<!DOCTYPE svg PUBLIC "-//W3C//DTD SVG 20010904//EN"
 "http://www.w3.org/TR/2001/REC-SVG-20010904/DTD/svg10.dtd">
<svg version="1.0" xmlns="http://www.w3.org/2000/svg"
 width="1024.000000pt" height="1024.000000pt" viewBox="0 0 1024.000000 1024.000000"
 preserveAspectRatio="xMidYMid meet">
<metadata>
Created by potrace 1.11, written by Peter Selinger 2001-2013
</metadata>
<g transform="translate(0.000000,1024.000000) scale(0.100000,-0.100000)"
fill="#000000" stroke="none">
<path d="M4528 10235 c-2 -2 -84 -6 -183 -9 -223 -8 -327 -14 -565 -31 -105
-8 -327 -30 -405 -40 -16 -2 -57 -7 -90 -10 -32 -4 -66 -8 -75 -10 -8 -1 -37
-6 -65 -9 -249 -33 -576 -102 -840 -177 -412 -118 -809 -316 -1095 -544 -90
-71 -289 -267 -356 -348 -45 -57 -174 -234 -174 -241 0 -3 -13 -24 -29 -48
-97 -146 -219 -410 -306 -663 -76 -221 -166 -588 -199 -810 -6 -36 -12 -75
-22 -130 -2 -11 -6 -44 -10 -73 -3 -29 -7 -61 -9 -71 -2 -10 -6 -42 -10 -72
-3 -30 -8 -65 -10 -79 -4 -23 -11 -95 -20 -190 -2 -19 -6 -64 -9 -100 -9 -89
-21 -254 -31 -420 -27 -446 -27 -1577 0 -2070 8 -143 22 -338 30 -425 3 -27 7
-79 10 -115 4 -36 8 -76 10 -90 2 -14 6 -47 9 -75 12 -113 18 -155 32 -250 13
-88 44 -274 59 -344 34 -168 50 -241 71 -321 14 -52 27 -99 28 -105 11 -46 35
-120 73 -235 202 -599 523 -1056 966 -1373 234 -168 502 -301 852 -423 137
-47 524 -146 660 -167 17 -3 84 -14 150 -26 129 -22 387 -57 500 -67 38 -3 76
-7 85 -9 34 -6 362 -31 530 -40 531 -28 1589 -28 2060 0 41 3 118 7 170 10 52
3 113 8 135 10 22 2 76 7 120 10 44 4 94 8 110 10 17 3 57 7 90 10 117 11 323
38 460 61 154 26 176 30 315 59 130 27 372 88 416 105 16 7 37 13 47 15 108
22 549 208 646 272 19 13 37 23 42 23 16 0 249 160 345 238 564 455 912 1179
1069 2222 16 111 21 144 30 225 4 32 8 66 10 75 2 8 6 49 10 90 3 41 8 86 10
100 7 50 21 230 31 390 3 58 8 121 9 140 26 268 26 1798 0 2060 -2 19 -6 87
-10 150 -3 63 -8 133 -10 155 -2 22 -6 74 -10 115 -13 161 -24 256 -61 535 -4
34 -40 245 -59 350 -35 191 -104 457 -169 648 -118 348 -277 652 -475 907 -61
79 -278 305 -346 361 -311 255 -658 431 -1126 573 -96 29 -286 79 -348 91 -9
2 -27 6 -41 9 -14 3 -38 8 -55 11 -16 3 -39 8 -50 10 -36 7 -249 45 -290 51
-22 3 -51 7 -65 9 -14 2 -83 11 -155 20 -71 8 -146 17 -165 20 -19 2 -66 7
-105 10 -38 4 -81 8 -95 10 -14 2 -70 7 -125 10 -55 3 -120 8 -145 10 -25 2
-103 7 -175 10 -71 4 -166 9 -210 12 -86 5 -1392 13 -1397 8z"/>
</g>
</svg>
