<svg xmlns="http://www.w3.org/2000/svg" width="460" height="89"><defs><linearGradient x1="189.385%" y1="164.681%" x2="0%" y2="2.741%" id="a"><stop stop-color="#6A11CB" offset="0%"/><stop stop-color="#2575FC" offset="100%"/></linearGradient></defs><g fill="none" fill-rule="evenodd"><ellipse fill="url(#a)" fill-rule="nonzero" cx="44.473" cy="44.5" rx="44.473" ry="44.5"/><g opacity=".047" transform="rotate(30 -19.511 71.407)"><ellipse cx="37.67" cy="4.274" rx="1.331" ry="1.332"/><path d="M48.876 8.934C45.094 6.132 41.347 3.327 38.02-.001L16.8 21.233c3.326 3.329 6.163 7.148 8.999 10.967 9.035-6.271 19.26-18.535 23.077-23.266zM36.725 5.22a1.332 1.332 0 111.331 1.332c-.578.25-1.299.25-1.89 0l.559-1.332z" fill="#E7E8E9" fill-rule="nonzero"/><path d="M51.993 16.397c1.435-1.716 1.33-4.134-.21-5.291-.98-.735-1.926-1.471-2.907-2.172C45.06 13.699 34.834 25.928 25.8 32.2c.7.946.35.35 1.05 1.296 1.156 1.543 3.572 1.612 5.289.176 6.757-5.746 14.112-10.477 19.855-17.275z" fill="#FFF" fill-rule="nonzero"/><path d="M19.558 18.492l3.342 3.344-4.976 4.98-3.343-3.344z" fill="#E7E8E9" fill-rule="nonzero"/><g fill-rule="nonzero"><path d="M4.963 40.19l-3.747-3.75a.572.572 0 010-.841l14.532-14.541a.572.572 0 01.84 0l3.748 3.749a.574.574 0 010 .841L5.803 40.188c-.244.245-.63.245-.84 0v.001z" fill="#000"/><path d="M4.963 40.19l-3.747-3.75a.572.572 0 010-.841l14.532-14.541a.572.572 0 01.84 0l3.748 3.749a.574.574 0 010 .841L5.803 40.188c-.244.245-.63.245-.84 0v.001z" fill="#2B2B2B"/></g></g><g opacity=".081" transform="rotate(20 -38.728 88.84)"><ellipse cx="36.67" cy="4.275" rx="1.331" ry="1.332"/><path d="M47.876 8.935C44.094 6.133 40.346 3.328 37.02 0L15.8 21.234c3.326 3.329 6.163 7.148 8.999 10.967 9.035-6.271 19.26-18.535 23.077-23.266zM35.724 5.222a1.332 1.332 0 111.332 1.332c-.578.25-1.299.25-1.891 0l.56-1.332z" fill="#E7E8E9" fill-rule="nonzero"/><path d="M50.993 16.398c1.435-1.716 1.33-4.134-.211-5.291-.98-.735-1.925-1.471-2.906-2.172C44.059 13.7 33.834 25.929 24.799 32.2c.7.946.35.35 1.05 1.296 1.156 1.543 3.572 1.612 5.288.176 6.758-5.746 14.112-10.477 19.856-17.275z" fill="#FFF" fill-rule="nonzero"/><path d="M18.558 18.493l3.342 3.344-4.976 4.98-3.343-3.344z" fill="#E7E8E9" fill-rule="nonzero"/><g fill-rule="nonzero"><path d="M3.963 40.19L.215 36.44a.572.572 0 010-.84l14.533-14.541a.572.572 0 01.84 0l3.747 3.75a.574.574 0 010 .84L4.803 40.19c-.245.246-.63.246-.84 0v.001z" fill="#000"/><path d="M3.963 40.19L.215 36.44a.572.572 0 010-.84l14.533-14.541a.572.572 0 01.84 0l3.747 3.75a.574.574 0 010 .84L4.803 40.19c-.245.246-.63.246-.84 0v.001z" fill="#2B2B2B"/></g></g><g opacity=".205" transform="rotate(10 -87.265 131.922)"><ellipse cx="36.67" cy="4.275" rx="1.331" ry="1.332"/><path d="M47.876 8.935C44.094 6.133 40.346 3.328 37.02 0L15.8 21.234c3.326 3.329 6.163 7.148 8.999 10.967 9.035-6.271 19.26-18.535 23.077-23.266zM35.724 5.222a1.332 1.332 0 111.332 1.332c-.578.25-1.299.25-1.891 0l.56-1.332z" fill="#E7E8E9" fill-rule="nonzero"/><path d="M50.993 16.398c1.435-1.716 1.33-4.134-.211-5.291-.98-.735-1.925-1.471-2.906-2.172C44.059 13.7 33.834 25.929 24.799 32.2c.7.946.35.35 1.05 1.296 1.156 1.543 3.572 1.612 5.288.176 6.758-5.746 14.112-10.477 19.856-17.275z" fill="#FFF" fill-rule="nonzero"/><path d="M18.558 18.493l3.342 3.344-4.976 4.98-3.343-3.344z" fill="#E7E8E9" fill-rule="nonzero"/><path d="M3.963 40.19L.215 36.44a.572.572 0 010-.84l14.533-14.541a.572.572 0 01.84 0l3.747 3.75a.574.574 0 010 .84L4.803 40.19c-.245.246-.63.246-.84 0v.001z" fill="#2B2B2B" fill-rule="nonzero"/></g><g transform="translate(15.288 17.383)"><ellipse cx="36.688" cy="4.269" rx="1.331" ry="1.33"/><path d="M47.899 8.924c-3.783-2.8-7.533-5.6-10.861-8.924l-21.23 21.207c3.328 3.324 6.166 7.139 9.004 10.953C33.85 25.896 44.082 13.648 47.9 8.924H47.9zm-12.157-3.71a1.328 1.328 0 111.335 1.335c-.578.252-1.3.252-1.893 0l.558-1.335z" fill="#E7E8E9" fill-rule="nonzero"/><path d="M51.018 16.377c1.436-1.714 1.331-4.13-.21-5.284-.981-.734-1.928-1.47-2.908-2.17-3.82 4.76-14.05 16.973-23.089 23.237.7.945.35.35 1.05 1.295 1.157 1.54 3.575 1.61 5.291.175 6.762-5.739 14.12-10.464 19.866-17.253z" fill="#FFF" fill-rule="nonzero"/><path fill="#E7E8E9" fill-rule="nonzero" d="M18.568 18.469l3.343 3.34-4.979 4.974-3.344-3.34z"/><path d="M3.965 40.139l-3.75-3.744a.571.571 0 010-.84l14.54-14.523a.573.573 0 01.841 0l3.748 3.744a.571.571 0 010 .84L4.806 40.139c-.245.245-.631.245-.84 0z" fill="#2B2B2B" fill-rule="nonzero"/></g><path d="M138.441 78.065c12.951 0 23.374-7.586 26.564-20.955l-12.223-1.358c-1.896 7.332-7.455 11.03-14.34 11.03-9.318 0-16.078-6.795-16.078-21.871 0-15.107 6.76-22.06 16.077-22.06 6.887 0 12.604 3.76 14.499 11.283l12.128-1.36c-3.158-13.526-13.676-21.207-26.627-21.207-16.456 0-28.553 12.421-28.553 33.344 0 20.827 12.097 33.154 28.553 33.154zm78.235-.885V66.687H189.26V12.453h-12.477V77.18h39.894-.001zm54.798 0V66.687h-29.565V50.031h25.363V39.57H241.91V22.945h29.406V12.453h-41.882V77.18h42.04zm23.053 0l4.706-13.78h24.763l4.707 13.78h13.36l-23.847-64.727h-13.234L281.135 77.18h13.392zm25.996-24.02h-17.815l8.528-24.969h.758l8.528 24.97zm57.102 24.02l23.848-64.727h-13.108l-16.962 48.988h-.758l-16.993-48.989h-13.108L364.39 77.18h13.234zm45.394-24.21h10.834l12.003 24.21h13.835L446.3 50.568c6.506-3.255 10.865-9.04 10.865-18.015 0-12.041-7.454-20.1-22.774-20.1h-23.847V77.18h12.477V52.97zm10.616-11.292h-10.616V22.945h10.888c6.987 0 9.981 3.965 9.981 9.443 0 5.931-3.387 9.29-10.253 9.29z" fill="#d4d4d4" fill-rule="nonzero"/></g></svg>
